<svg xmlns="http://www.w3.org/2000/svg" width="24.405" height="24.405" viewBox="0 0 24.405 24.405">
  <g id="Icon_feather-image" data-name="Icon feather-image" transform="translate(-3.5 -3.5)">
    <path id="Path_1090" data-name="Path 1090" d="M6.944,4.5H24.056A2.444,2.444,0,0,1,26.5,6.944V24.056A2.444,2.444,0,0,1,24.056,26.5H6.944A2.444,2.444,0,0,1,4.5,24.056V6.944A2.444,2.444,0,0,1,6.944,4.5Z" fill="none" stroke="#707070" stroke-linecap="round" stroke-linejoin="round" stroke-width="2"/>
    <path id="Path_1091" data-name="Path 1091" d="M15,12.75a2.25,2.25,0,1,1-2.25-2.25A2.25,2.25,0,0,1,15,12.75Z" transform="translate(-1.333 -1.333)" fill="none" stroke="#707070" stroke-linecap="round" stroke-linejoin="round" stroke-width="2"/>
    <path id="Path_1092" data-name="Path 1092" d="M26.5,22.5,20.563,15,7.5,31.5" transform="translate(0 -5)" fill="none" stroke="#707070" stroke-linecap="round" stroke-linejoin="round" stroke-width="2"/>
  </g>
</svg>
