<svg xmlns="http://www.w3.org/2000/svg" width="24.671" height="21.69" viewBox="0 0 24.671 21.69">
  <g id="heart" transform="translate(0 -28.501)">
    <path id="Path_1" data-name="Path 1" d="M22.679,30.515a6.831,6.831,0,0,0-9.66.005l-.675.675-.685-.685A6.825,6.825,0,0,0,2,30.5a6.825,6.825,0,0,0,.01,9.66l9.822,9.822a.7.7,0,0,0,.994.005l9.843-9.807a6.844,6.844,0,0,0,.01-9.665Zm-1,8.666-9.346,9.31L3,39.165a5.414,5.414,0,1,1,7.657-7.657l1.182,1.182a.7.7,0,0,0,1,0l1.172-1.172a5.418,5.418,0,0,1,7.662,7.662Z" transform="translate(0)" fill="#707070"/>
  </g>
</svg>
