<svg xmlns="http://www.w3.org/2000/svg" width="27.726" height="22" viewBox="0 0 27.726 22">
  <path id="Icon_awesome-medium-m" data-name="Icon awesome-medium-m" d="M4.283,8.988a1.082,1.082,0,0,0-.35-.906L1.348,4.964V4.5H9.385L15.6,18.125,21.061,4.5h7.664v.464L26.512,7.085a.646.646,0,0,0-.246.619V23.3a.646.646,0,0,0,.246.619l2.161,2.121V26.5H17.8v-.464l2.241-2.172c.218-.218.218-.287.218-.619v-12.6L14.028,26.46h-.843L5.94,10.645v10.6a1.444,1.444,0,0,0,.4,1.215L9.253,25.99v.464H1V26L3.91,22.459a1.4,1.4,0,0,0,.373-1.215Z" transform="translate(-0.998 -4.5)" fill="#717171"/>
</svg>
