<svg xmlns="http://www.w3.org/2000/svg" width="21.611" height="21.634" viewBox="0 0 21.611 21.634">
  <path id="push-pin" d="M.036,8.691a.408.408,0,0,1,.249-.3,9.971,9.971,0,0,1,7.493.118l6.072-5.166A4.563,4.563,0,0,1,14.687.152a.411.411,0,0,1,.3-.152.423.423,0,0,1,.311.119l6.225,6.225a.409.409,0,0,1-.035.608,4.631,4.631,0,0,1-3.153.839l-5.191,6.1a10.7,10.7,0,0,1,.125,7.483.408.408,0,0,1-.668.138L6.652,15.568,1.114,21.106a.408.408,0,1,1-.577-.577l5.538-5.538L.146,9.062A.409.409,0,0,1,.036,8.691ZM7.238,15l5.478,5.479a10.355,10.355,0,0,0-.42-6.492.409.409,0,0,1,.061-.432L17.85,7.1a.41.41,0,0,1,.312-.144.363.363,0,0,1,.063.005,4.222,4.222,0,0,0,2.365-.39L15.08,1.059a3.828,3.828,0,0,0-.393,2.387.407.407,0,0,1-.138.377L8.107,9.3a.412.412,0,0,1-.451.052A9.324,9.324,0,0,0,1.18,8.941Z" transform="translate(-0.027 0)" fill="#707070"/>
</svg>
